# This file uses centimeters as units for non-parametric coordinates.

mtllib struik 2.mtl
g default
v -4.801043 0.287785 -1.579632
v -5.423965 0.304736 -1.553821
v -5.982743 0.312554 -1.276890
v -6.380760 0.309887 -0.796723
v -6.549195 0.297196 -0.196346
v -6.458924 0.276676 0.420432
v -6.125555 0.251874 0.946962
v -5.606732 0.227080 1.292205
v -4.992164 0.206580 1.396464
v -4.388114 0.193919 1.241712
v -3.899029 0.191286 0.854706
v -3.609476 0.199137 0.302364
v -3.569521 0.216113 -0.319810
v -3.786073 0.239280 -0.904235
v -4.221687 0.264632 -1.349860
v -4.823173 0.259173 -1.464030
v -5.398390 0.274826 -1.440196
v -5.914375 0.282045 -1.184473
v -6.281911 0.279582 -0.741079
v -6.437446 0.267863 -0.186680
v -6.354089 0.248914 0.382863
v -6.046251 0.226012 0.869071
v -5.567161 0.203116 1.187874
v -4.999657 0.184186 1.284149
v -4.441868 0.172495 1.141249
v -3.990238 0.170064 0.783879
v -3.722859 0.177313 0.273838
v -3.685964 0.192990 -0.300689
v -3.885932 0.214383 -0.840357
v -4.288186 0.237793 -1.251855
v -4.898782 0.316552 -1.007060
v -5.282260 0.326987 -0.991170
v -5.626250 0.331800 -0.820689
v -5.871274 0.330158 -0.525093
v -5.974965 0.322346 -0.155493
v -5.919392 0.309713 0.224202
v -5.714168 0.294445 0.548341
v -5.394774 0.279181 0.760877
v -5.016439 0.266561 0.825060
v -4.644579 0.258767 0.729792
v -4.343492 0.257146 0.491547
v -4.165240 0.261979 0.151518
v -4.140643 0.272430 -0.231499
v -4.273955 0.286692 -0.591278
v -4.542124 0.302299 -0.865610
v -4.974921 0.355301 -0.550632
v -5.166660 0.360519 -0.542687
v -5.338655 0.362925 -0.457447
v -5.461166 0.362104 -0.309649
v -5.513012 0.358198 -0.124850
v -5.485226 0.351882 0.064999
v -5.382613 0.344248 0.227068
v -5.222917 0.336616 0.333336
v -5.033749 0.330306 0.365427
v -4.847819 0.326409 0.317793
v -4.697275 0.325598 0.198670
v -4.608150 0.328015 0.028657
v -4.595851 0.333240 -0.162852
v -4.662507 0.340371 -0.342741
v -4.796592 0.348175 -0.479907
v -5.051770 0.369031 -0.094933
v -4.800965 0.288818 -1.579888
v -5.424007 0.305772 -1.554072
v -5.393144 0.461936 -1.435028
v -4.817808 0.446280 -1.458866
v -5.982894 0.313591 -1.277089
v -5.909237 0.469156 -1.179252
v -6.380988 0.310923 -0.796828
v -6.276849 0.466693 -0.735765
v -6.549455 0.298230 -0.196334
v -6.432417 0.454972 -0.181252
v -6.459168 0.277706 0.420563
v -6.349041 0.436019 0.388411
v -6.125733 0.252900 0.947196
v -6.041140 0.413112 0.874716
v -5.606812 0.228100 1.292504
v -5.561947 0.390212 1.193592
v -4.992124 0.207596 1.396785
v -4.994330 0.371278 1.289882
v -4.387955 0.194933 1.242001
v -4.436424 0.359584 1.146953
v -3.898777 0.192300 0.854922
v -3.984700 0.357152 0.789511
v -3.609167 0.200152 0.302473
v -3.717265 0.364403 0.279362
v -3.569204 0.217132 -0.319822
v -3.680362 0.380083 -0.295283
v -3.785797 0.240303 -0.904360
v -3.880371 0.401480 -0.835064
v -4.221498 0.265660 -1.350072
v -4.282710 0.424896 -1.246647
v -5.291607 0.775334 -1.061499
v -4.872067 0.763916 -1.078912
v -5.667946 0.780600 -0.874985
v -5.936014 0.778803 -0.551589
v -6.049455 0.770256 -0.147233
v -5.988657 0.756436 0.268169
v -5.764131 0.739732 0.622792
v -5.414703 0.723033 0.855312
v -5.000785 0.709226 0.925533
v -4.593955 0.700698 0.821305
v -4.264555 0.698925 0.560656
v -4.069540 0.704213 0.188651
v -4.042630 0.715646 -0.230386
v -4.188478 0.731250 -0.624001
v -4.481868 0.748324 -0.924131
v -5.176873 1.038161 -0.634211
v -4.937017 1.031634 -0.644149
v -5.392032 1.041171 -0.527578
v -5.545288 1.040144 -0.342690
v -5.610145 1.035258 -0.111516
v -5.575387 1.027357 0.125975
v -5.447021 1.017807 0.328716
v -5.247250 1.008260 0.461650
v -5.010611 1.000366 0.501798
v -4.778017 0.995491 0.442208
v -4.589697 0.994477 0.293194
v -4.478204 0.997500 0.080513
v -4.462820 1.004037 -0.159054
v -4.546205 1.012957 -0.384087
v -4.713936 1.022719 -0.555677
v -5.066148 1.130928 -0.212443
v -5.006184 1.129296 -0.214927
v -5.119938 1.131680 -0.185784
v -5.158252 1.131424 -0.139562
v -5.174466 1.130202 -0.081769
v -5.165776 1.128227 -0.022396
v -5.133685 1.125839 0.028289
v -5.083742 1.123453 0.061523
v -5.024582 1.121479 0.071560
v -4.966434 1.120260 0.056662
v -4.919354 1.120007 0.019409
v -4.891481 1.120763 -0.033762
v -4.887635 1.122397 -0.093653
v -4.908481 1.124627 -0.149912
v -4.950414 1.127067 -0.192809
vt 0.949248 0.703674
vt 0.826858 0.872130
vt 0.743091 0.779098
vt 0.834884 0.652755
vt 0.646530 0.976243
vt 0.607845 0.857182
vt 0.659324 0.686065
vt 0.720519 0.601837
vt 0.992541 0.500000
vt 0.867353 0.500000
vt 0.439447 0.998008
vt 0.452533 0.873506
vt 0.569160 0.738121
vt 0.575557 0.593033
vt 0.606154 0.550918
vt 0.742165 0.500000
vt 0.949249 0.296326
vt 0.834884 0.347245
vt 0.241414 0.933663
vt 0.304008 0.825247
vt 0.465618 0.749004
vt 0.530475 0.619061
vt 0.616977 0.500000
vt 0.720519 0.398163
vt 0.826858 0.127869
vt 0.743091 0.220902
vt 0.086674 0.794334
vt 0.187953 0.720751
vt 0.366602 0.716832
vt 0.478704 0.624502
vt 0.606154 0.449081
vt 0.659324 0.313935
vt 0.646530 0.023757
vt 0.607845 0.142818
vt 0.001981 0.604112
vt 0.124433 0.578084
vt 0.289232 0.647167
vt 0.429196 0.608416
vt 0.575557 0.406967
vt 0.569160 0.261879
vt 0.439447 0.001992
vt 0.452533 0.126494
vt 0.001981 0.395888
vt 0.124433 0.421916
vt 0.246885 0.552056
vt 0.390511 0.573584
vt 0.530475 0.380939
vt 0.465618 0.250996
vt 0.241414 0.066337
vt 0.304008 0.174753
vt 0.086673 0.205666
vt 0.187953 0.279250
vt 0.246885 0.447944
vt 0.369338 0.526028
vt 0.478704 0.375498
vt 0.366602 0.283168
vt 0.289232 0.352833
vt 0.369338 0.473972
vt 0.429196 0.391584
vt 0.390511 0.426416
vt 0.949248 0.703674
vt 0.826858 0.872130
vt 0.743091 0.779098
vt 0.834884 0.652755
vt 0.646530 0.976243
vt 0.607845 0.857182
vt 0.439447 0.998008
vt 0.452533 0.873506
vt 0.241414 0.933663
vt 0.304008 0.825247
vt 0.086674 0.794334
vt 0.187953 0.720751
vt 0.001981 0.604112
vt 0.124433 0.578084
vt 0.001981 0.395888
vt 0.124433 0.421916
vt 0.086673 0.205666
vt 0.187953 0.279250
vt 0.241414 0.066337
vt 0.304008 0.174753
vt 0.439447 0.001992
vt 0.452533 0.126494
vt 0.646530 0.023757
vt 0.607845 0.142818
vt 0.826858 0.127869
vt 0.743091 0.220902
vt 0.949249 0.296326
vt 0.834884 0.347245
vt 0.992541 0.500000
vt 0.867353 0.500000
vt 0.659324 0.686065
vt 0.720519 0.601837
vt 0.569160 0.738121
vt 0.465618 0.749004
vt 0.366602 0.716832
vt 0.289232 0.647167
vt 0.246885 0.552056
vt 0.246885 0.447944
vt 0.289232 0.352833
vt 0.366602 0.283168
vt 0.465618 0.250996
vt 0.569160 0.261879
vt 0.659324 0.313935
vt 0.720519 0.398163
vt 0.742165 0.500000
vt 0.575557 0.593033
vt 0.606154 0.550918
vt 0.530475 0.619061
vt 0.478704 0.624502
vt 0.429196 0.608416
vt 0.390511 0.573584
vt 0.369338 0.526028
vt 0.369338 0.473972
vt 0.390511 0.426416
vt 0.429196 0.391584
vt 0.478704 0.375498
vt 0.530475 0.380939
vt 0.575557 0.406967
vt 0.606154 0.449081
vt 0.616977 0.500000
vt 0.491790 0.500000
vt 0.949248 0.703674
vt 0.826858 0.872130
vt 0.646530 0.976243
vt 0.439447 0.998008
vt 0.241414 0.933663
vt 0.086674 0.794334
vt 0.001981 0.604112
vt 0.001981 0.395888
vt 0.086673 0.205666
vt 0.241414 0.066337
vt 0.439447 0.001992
vt 0.646530 0.023757
vt 0.826858 0.127869
vt 0.949249 0.296326
vt 0.992541 0.500000
vt 0.533673 0.546516
vt 0.548972 0.525459
vt 0.511132 0.559530
vt 0.485247 0.562251
vt 0.460493 0.554208
vt 0.441150 0.536792
vt 0.430564 0.513014
vt 0.430564 0.486986
vt 0.441150 0.463208
vt 0.460493 0.445792
vt 0.485247 0.437749
vt 0.511132 0.440470
vt 0.533673 0.453484
vt 0.548972 0.474541
vt 0.554384 0.500000
vn 0.152918 0.612447 -0.775580
vn -0.181189 0.618608 -0.764523
vn -0.157550 0.723242 -0.672383
vn 0.139661 0.716144 -0.683837
vn -0.483871 0.618487 -0.619146
vn -0.425068 0.725529 -0.541225
vn -0.702960 0.612003 -0.362352
vn -0.616695 0.722580 -0.312356
vn -0.799015 0.600177 -0.036913
vn -0.698806 0.714880 -0.024854
vn -0.753165 0.585016 0.300829
vn -0.656515 0.703745 0.271536
vn -0.571871 0.569199 0.590742
vn -0.496700 0.691107 0.525033
vn -0.286807 0.555572 0.780436
vn -0.247093 0.679178 0.691131
vn 0.050859 0.546587 0.835857
vn 0.048574 0.670048 0.740727
vn 0.380514 0.543807 0.747986
vn 0.338513 0.665306 0.665415
vn 0.644126 0.547628 0.534046
vn 0.572270 0.665760 0.478822
vn 0.796923 0.557279 0.233140
vn 0.709660 0.671301 0.213862
vn 0.814588 0.571020 -0.101897
vn 0.727568 0.680948 -0.083394
vn 0.696067 0.586490 -0.414150
vn 0.623519 0.693027 -0.361852
vn 0.462443 0.601105 -0.651781
vn 0.415701 0.705464 -0.574033
vn -0.130239 0.808278 -0.574216
vn 0.125888 0.801437 -0.584680
vn -0.360137 0.811306 -0.460526
vn -0.524091 0.809992 -0.263140
vn -0.593655 0.804559 -0.016100
vn -0.556677 0.795944 0.237872
vn -0.419473 0.785638 0.454770
vn -0.205786 0.775427 0.596963
vn 0.047337 0.767080 0.639803
vn 0.296005 0.762043 0.575909
vn 0.497166 0.761186 0.416439
vn 0.616079 0.764653 0.189083
vn 0.632299 0.771839 -0.066803
vn 0.543131 0.781500 -0.307028
vn 0.364034 0.791966 -0.490172
vn -0.092540 0.895982 -0.434341
vn 0.104760 0.890616 -0.442526
vn -0.269497 0.898458 -0.346617
vn -0.395529 0.897615 -0.194534
vn -0.448846 0.893598 -0.004399
vn -0.420241 0.887102 0.190913
vn -0.314669 0.879250 0.357636
vn -0.150383 0.871398 0.466958
vn 0.044222 0.864906 0.499982
vn 0.235510 0.860894 0.450996
vn 0.390410 0.860056 0.328457
vn 0.482133 0.862538 0.153544
vn 0.494809 0.867912 -0.043507
vn 0.426235 0.875248 -0.228614
vn 0.288269 0.883277 -0.369759
vn 0.105704 0.990522 -0.087713
vn 0.051642 0.992684 -0.109142
vn -0.006468 0.994270 -0.106702
vn -0.058561 0.995006 -0.080831
vn -0.095626 0.994765 -0.036031
vn -0.111273 0.993590 0.019934
vn -0.102824 0.991684 0.077390
vn -0.071755 0.989378 0.126419
vn -0.023436 0.987069 0.158572
vn 0.033803 0.985155 0.168306
vn 0.090087 0.983967 0.153927
vn 0.135698 0.983710 0.117900
vn 0.162741 0.984430 0.066431
vn 0.166514 0.986003 0.008406
vn 0.146341 0.988158 -0.046125
vn 0.008533 -0.971053 -0.238710
vn -0.035244 -0.999322 0.010673
vn -0.018546 -0.999777 0.010134
vn -0.080161 -0.968237 -0.236834
vn -0.003402 -0.999990 0.002881
vn -0.161706 -0.966477 -0.199434
vn 0.007580 -0.999922 -0.009957
vn -0.222190 -0.966102 -0.131451
vn 0.012416 -0.999578 -0.026256
vn -0.250135 -0.967236 -0.043439
vn 0.010139 -0.999015 -0.043197
vn -0.239087 -0.969739 0.049424
vn 0.001054 -0.998331 -0.057750
vn -0.189827 -0.973192 0.129857
vn -0.013249 -0.997647 -0.067268
vn -0.111068 -0.976956 0.182266
vn -0.030186 -0.997088 -0.070030
vn -0.017848 -0.980312 0.196645
vn -0.046700 -0.996753 -0.065594
vn 0.072084 -0.982635 0.170977
vn -0.059876 -0.996698 -0.054845
vn 0.142483 -0.983529 0.111216
vn -0.067487 -0.996927 -0.039763
vn 0.181842 -0.982895 0.029175
vn -0.068337 -0.997397 -0.022999
vn 0.184857 -0.980902 -0.060482
vn -0.062392 -0.998024 -0.007392
vn 0.152339 -0.977926 -0.143016
vn -0.050710 -0.998703 0.004481
vn 0.090257 -0.974461 -0.205620
vn -0.050710 -0.993325 0.103600
vn 0.005097 -0.994844 0.101288
vn 0.055157 -0.995544 0.076478
vn 0.090815 -0.995305 0.033461
vn 0.105905 -0.994169 -0.020326
vn 0.097818 -0.992330 -0.075582
vn 0.067952 -0.990108 -0.122753
vn 0.021471 -0.987887 -0.153683
vn -0.033587 -0.986050 -0.163023
vn -0.087703 -0.984916 -0.149159
vn -0.131520 -0.984680 -0.114488
vn -0.157460 -0.985384 -0.065004
vn -0.161040 -0.986905 -0.009265
vn -0.141639 -0.988980 0.043093
vn -0.102613 -0.991251 0.083016
vn -0.044466 -0.996821 0.066109
vn -0.004405 -0.997911 0.064449
vn 0.031531 -0.998414 0.046640
vn 0.057127 -0.998242 0.015760
vn 0.067960 -0.997426 -0.022851
vn 0.062154 -0.996107 -0.062517
vn 0.040715 -0.994512 -0.096379
vn 0.007349 -0.992917 -0.118582
vn -0.032175 -0.991599 -0.125287
vn -0.071022 -0.990785 -0.115335
vn -0.102475 -0.990615 -0.090446
vn -0.121097 -0.991120 -0.054924
vn -0.123666 -0.992212 -0.014911
vn -0.109740 -0.993702 0.022674
vn -0.081725 -0.995332 0.051332
vn -0.028395 -0.999173 -0.029087
vn 0.153860 -0.249079 -0.956183
vn -0.245759 -0.238343 -0.939572
vn -0.245734 -0.238344 -0.939578
vn 0.153870 -0.249079 -0.956182
vn -0.604164 -0.233444 -0.761898
vn -0.604109 -0.233445 -0.761942
vn -0.859459 -0.235143 -0.453914
vn -0.859499 -0.235144 -0.453838
vn -0.967486 -0.243380 -0.068829
vn -0.967498 -0.243385 -0.068634
vn -0.909558 -0.256681 0.326832
vn -0.909538 -0.256683 0.326886
vn -0.695830 -0.272600 0.664462
vn -0.695629 -0.272612 0.664667
vn -0.362733 -0.288360 0.886156
vn -0.363085 -0.288346 0.886017
vn 0.031444 -0.301173 0.953051
vn 0.031152 -0.301165 0.953063
vn 0.418643 -0.309399 0.853821
vn 0.418985 -0.309405 0.853651
vn 0.732508 -0.311308 0.605408
vn 0.732455 -0.311308 0.605472
vn 0.918261 -0.306202 0.251071
vn 0.918236 -0.306204 0.251160
vn 0.943869 -0.295323 -0.147972
vn 0.943870 -0.295324 -0.147963
vn 0.804936 -0.280341 -0.522960
vn 0.805059 -0.280351 -0.522766
vn 0.525592 -0.263860 -0.808784
vn 0.525565 -0.263858 -0.808802
s 1
g struikie3
usemtl lambert27SG
f 62/122/1 63/123/2 64/3/3 65/4/4
f 63/123/2 66/124/5 67/6/6 64/3/3
f 66/124/5 68/125/7 69/12/8 67/6/6
f 68/125/7 70/126/9 71/20/10 69/12/8
f 70/126/9 72/127/11 73/28/12 71/20/10
f 72/127/11 74/128/13 75/36/14 73/28/12
f 74/128/13 76/129/15 77/44/16 75/36/14
f 76/129/15 78/130/17 79/52/18 77/44/16
f 78/130/17 80/131/19 81/50/20 79/52/18
f 80/131/19 82/132/21 83/42/22 81/50/20
f 82/132/21 84/133/23 85/34/24 83/42/22
f 84/133/23 86/134/25 87/26/26 85/34/24
f 86/134/25 88/135/27 89/18/28 87/26/26
f 88/135/27 90/136/29 91/10/30 89/18/28
f 90/136/29 62/122/1 65/4/4 91/10/30
f 65/4/4 64/3/3 92/7/31 93/8/32
f 64/3/3 67/6/6 94/13/33 92/7/31
f 67/6/6 69/12/8 95/21/34 94/13/33
f 69/12/8 71/20/10 96/29/35 95/21/34
f 71/20/10 73/28/12 97/37/36 96/29/35
f 73/28/12 75/36/14 98/45/37 97/37/36
f 75/36/14 77/44/16 99/53/38 98/45/37
f 77/44/16 79/52/18 100/57/39 99/53/38
f 79/52/18 81/50/20 101/56/40 100/57/39
f 81/50/20 83/42/22 102/48/41 101/56/40
f 83/42/22 85/34/24 103/40/42 102/48/41
f 85/34/24 87/26/26 104/32/43 103/40/42
f 87/26/26 89/18/28 105/24/44 104/32/43
f 89/18/28 91/10/30 106/16/45 105/24/44
f 91/10/30 65/4/4 93/8/32 106/16/45
f 93/8/32 92/7/31 107/14/46 108/15/47
f 92/7/31 94/13/33 109/22/48 107/14/46
f 94/13/33 95/21/34 110/30/49 109/22/48
f 95/21/34 96/29/35 111/38/50 110/30/49
f 96/29/35 97/37/36 112/46/51 111/38/50
f 97/37/36 98/45/37 113/54/52 112/46/51
f 98/45/37 99/53/38 114/58/53 113/54/52
f 99/53/38 100/57/39 115/60/54 114/58/53
f 100/57/39 101/56/40 116/59/55 115/60/54
f 101/56/40 102/48/41 117/55/56 116/59/55
f 102/48/41 103/40/42 118/47/57 117/55/56
f 103/40/42 104/32/43 119/39/58 118/47/57
f 104/32/43 105/24/44 120/31/59 119/39/58
f 105/24/44 106/16/45 121/23/60 120/31/59
f 106/16/45 93/8/32 108/15/47 121/23/60
f 136/151/61 123/138/62 122/137/63 124/139/64 125/140/65 126/141/66 127/142/67 128/143/68 129/144/69 130/145/70 131/146/71 132/147/72 133/148/73 134/149/74 135/150/75
s 2
f 1/61/76 16/64/77 17/63/78 2/62/79
f 2/62/79 17/63/78 18/66/80 3/65/81
f 3/65/81 18/66/80 19/68/82 4/67/83
f 4/67/83 19/68/82 20/70/84 5/69/85
f 5/69/85 20/70/84 21/72/86 6/71/87
f 6/71/87 21/72/86 22/74/88 7/73/89
f 7/73/89 22/74/88 23/76/90 8/75/91
f 8/75/91 23/76/90 24/78/92 9/77/93
f 9/77/93 24/78/92 25/80/94 10/79/95
f 10/79/95 25/80/94 26/82/96 11/81/97
f 11/81/97 26/82/96 27/84/98 12/83/99
f 12/83/99 27/84/98 28/86/100 13/85/101
f 13/85/101 28/86/100 29/88/102 14/87/103
f 14/87/103 29/88/102 30/90/104 15/89/105
f 15/89/105 30/90/104 16/64/77 1/61/76
f 16/64/77 31/92/106 32/91/107 17/63/78
f 17/63/78 32/91/107 33/93/108 18/66/80
f 18/66/80 33/93/108 34/94/109 19/68/82
f 19/68/82 34/94/109 35/95/110 20/70/84
f 20/70/84 35/95/110 36/96/111 21/72/86
f 21/72/86 36/96/111 37/97/112 22/74/88
f 22/74/88 37/97/112 38/98/113 23/76/90
f 23/76/90 38/98/113 39/99/114 24/78/92
f 24/78/92 39/99/114 40/100/115 25/80/94
f 25/80/94 40/100/115 41/101/116 26/82/96
f 26/82/96 41/101/116 42/102/117 27/84/98
f 27/84/98 42/102/117 43/103/118 28/86/100
f 28/86/100 43/103/118 44/104/119 29/88/102
f 29/88/102 44/104/119 45/105/120 30/90/104
f 30/90/104 45/105/120 31/92/106 16/64/77
f 31/92/106 46/107/121 47/106/122 32/91/107
f 32/91/107 47/106/122 48/108/123 33/93/108
f 33/93/108 48/108/123 49/109/124 34/94/109
f 34/94/109 49/109/124 50/110/125 35/95/110
f 35/95/110 50/110/125 51/111/126 36/96/111
f 36/96/111 51/111/126 52/112/127 37/97/112
f 37/97/112 52/112/127 53/113/128 38/98/113
f 38/98/113 53/113/128 54/114/129 39/99/114
f 39/99/114 54/114/129 55/115/130 40/100/115
f 40/100/115 55/115/130 56/116/131 41/101/116
f 41/101/116 56/116/131 57/117/132 42/102/117
f 42/102/117 57/117/132 58/118/133 43/103/118
f 43/103/118 58/118/133 59/119/134 44/104/119
f 44/104/119 59/119/134 60/120/135 45/105/120
f 45/105/120 60/120/135 46/107/121 31/92/106
f 46/107/121 61/121/136 47/106/122
f 47/106/122 61/121/136 48/108/123
f 48/108/123 61/121/136 49/109/124
f 49/109/124 61/121/136 50/110/125
f 50/110/125 61/121/136 51/111/126
f 51/111/126 61/121/136 52/112/127
f 52/112/127 61/121/136 53/113/128
f 53/113/128 61/121/136 54/114/129
f 54/114/129 61/121/136 55/115/130
f 55/115/130 61/121/136 56/116/131
f 56/116/131 61/121/136 57/117/132
f 57/117/132 61/121/136 58/118/133
f 58/118/133 61/121/136 59/119/134
f 59/119/134 61/121/136 60/120/135
f 60/120/135 61/121/136 46/107/121
s 3
f 1/1/137 2/2/138 63/123/139 62/122/140
f 2/2/138 3/5/141 66/124/142 63/123/139
f 3/5/141 4/11/143 68/125/144 66/124/142
f 4/11/143 5/19/145 70/126/146 68/125/144
f 5/19/145 6/27/147 72/127/148 70/126/146
f 6/27/147 7/35/149 74/128/150 72/127/148
f 7/35/149 8/43/151 76/129/152 74/128/150
f 8/43/151 9/51/153 78/130/154 76/129/152
f 9/51/153 10/49/155 80/131/156 78/130/154
f 10/49/155 11/41/157 82/132/158 80/131/156
f 11/41/157 12/33/159 84/133/160 82/132/158
f 12/33/159 13/25/161 86/134/162 84/133/160
f 13/25/161 14/17/163 88/135/164 86/134/162
f 14/17/163 15/9/165 90/136/166 88/135/164
f 15/9/165 1/1/137 62/122/140 90/136/166
s 1
f 121/23/60 108/15/47 123/138/62 136/151/61
f 108/15/47 107/14/46 122/137/63 123/138/62
f 107/14/46 109/22/48 124/139/64 122/137/63
f 109/22/48 110/30/49 125/140/65 124/139/64
f 110/30/49 111/38/50 126/141/66 125/140/65
f 111/38/50 112/46/51 127/142/67 126/141/66
f 112/46/51 113/54/52 128/143/68 127/142/67
f 113/54/52 114/58/53 129/144/69 128/143/68
f 114/58/53 115/60/54 130/145/70 129/144/69
f 115/60/54 116/59/55 131/146/71 130/145/70
f 116/59/55 117/55/56 132/147/72 131/146/71
f 117/55/56 118/47/57 133/148/73 132/147/72
f 118/47/57 119/39/58 134/149/74 133/148/73
f 119/39/58 120/31/59 135/150/75 134/149/74
f 120/31/59 121/23/60 136/151/61 135/150/75
