# This file uses centimeters as units for non-parametric coordinates.

mtllib rock 2.mtl
g default
v 2.404161 -0.045450 7.351792
v 3.379123 -0.022976 7.513278
v 2.556016 0.318777 7.265561
v 3.112631 0.259041 7.205137
v 2.617859 0.263788 6.806060
v 3.167822 0.243110 6.789274
v 2.509491 -0.070462 6.570029
v 3.299180 -0.027282 6.633611
v 2.910683 -0.028409 7.475753
v 2.655254 -0.065786 6.253006
v 2.848745 0.252130 6.562078
v 2.871560 0.282387 7.327460
vt 0.138631 0.534530
vt 0.000000 0.134281
vt 0.169266 0.171011
vt 0.213170 0.357416
vt 0.295685 0.472536
vt 0.213630 0.653127
vt 0.315478 0.108904
vt 0.440072 0.163013
vt 0.467367 0.368678
vt 0.297188 0.000000
vt 0.571866 0.010622
vt 0.532331 0.445662
vt 0.768333 0.634899
vt 0.642010 0.030189
vt 0.960465 0.218417
vt 1.000000 0.653457
vt 0.569923 0.186973
vt 0.517832 0.573594
vn -0.068178 0.488466 0.869915
vn -0.039272 0.516079 0.855640
vn 0.107049 0.640622 0.760358
vn 0.107049 0.640622 0.760358
vn 0.064853 0.996591 -0.051003
vn 0.064900 0.996453 -0.053558
vn 0.064590 0.997217 -0.037223
vn 0.064590 0.997217 -0.037223
vn -0.136773 0.711539 -0.689206
vn 0.063494 0.677312 -0.732951
vn 0.442075 0.526803 -0.725981
vn 0.442075 0.526803 -0.725981
vn 0.036078 -0.999186 0.018038
vn 0.036446 -0.999161 0.018710
vn 0.034067 -0.999316 0.014378
vn 0.034067 -0.999316 0.014378
vn 0.814417 0.579758 -0.024616
vn 0.814417 0.579758 -0.024616
vn 0.814417 0.579758 -0.024616
vn 0.814417 0.579758 -0.024616
vn -0.916083 0.372909 -0.147412
vn -0.916083 0.372909 -0.147412
vn -0.916083 0.372909 -0.147412
vn -0.916083 0.372909 -0.147412
vn 0.041533 -0.998745 0.027975
vn 0.041533 -0.998745 0.027975
vn -0.627581 0.649410 -0.429428
vn -0.627581 0.649410 -0.429428
vn 0.065146 0.995609 -0.067214
vn 0.065146 0.995610 -0.067214
vn -0.198617 0.351081 0.915037
vn -0.198617 0.351081 0.915037
s 1
g pCube1
usemtl lambert28SG
f 12/7/1 9/10/2 2/11/3 4/8/4
s 2
f 11/5/5 12/7/6 4/8/7 6/9/8
s 3
f 10/6/9 11/5/10 6/9/11 8/12/12
s 4
f 9/13/13 10/14/14 8/15/15 2/16/16
s off
f 2/11/17 8/12/18 6/9/19 4/8/20
f 7/1/21 1/2/22 3/3/23 5/4/24
s 4
f 7/17/25 10/14/14 9/13/13 1/18/26
s 3
f 5/4/27 11/5/10 10/6/9 7/1/28
s 2
f 3/3/29 12/7/6 11/5/5 5/4/30
s 1
f 1/2/31 9/10/2 12/7/1 3/3/32
