# This file uses centimeters as units for non-parametric coordinates.

mtllib rock bear attack.mtl
g default
v -0.073777 -0.615822 -0.637247
v -0.557879 -0.454347 -0.112200
v 0.013362 -0.386759 0.490477
v 0.357891 -0.555030 -0.051123
v 0.147678 -0.204844 -0.571400
v -0.594730 0.084692 -0.089525
v 0.183621 0.058405 0.573256
v 0.521526 -0.026223 0.070947
v 0.138861 0.214934 -0.450162
v -0.437206 0.361274 -0.038157
v -0.036867 0.639152 0.309190
v 0.225224 0.588751 -0.079541
v -0.258282 -0.653372 -0.055395
v -0.189279 0.699014 0.026970
vt 0.000000 0.250000
vt 0.250000 0.250000
vt 0.500000 0.250000
vt 0.750000 0.250000
vt 1.000000 0.250000
vt 0.000000 0.500000
vt 0.250000 0.500000
vt 0.500000 0.500000
vt 0.750000 0.500000
vt 1.000000 0.500000
vt 0.000000 0.750000
vt 0.250000 0.750000
vt 0.500000 0.750000
vt 0.750000 0.750000
vt 1.000000 0.750000
vt 0.125000 0.000000
vt 0.375000 0.000000
vt 0.625000 0.000000
vt 0.875000 0.000000
vt 0.125000 1.000000
vt 0.375000 1.000000
vt 0.625000 1.000000
vt 0.875000 1.000000
vn -0.581424 0.186766 -0.791874
vn -0.581424 0.186766 -0.791874
vn -0.581424 0.186766 -0.791874
vn -0.581424 0.186766 -0.791874
vn -0.684168 0.014610 0.729178
vn -0.684168 0.014610 0.729178
vn -0.684168 0.014610 0.729178
vn -0.684168 0.014610 0.729178
vn 0.733465 -0.371206 0.569417
vn 0.733465 -0.371206 0.569417
vn 0.733465 -0.371206 0.569417
vn 0.733465 -0.371206 0.569417
vn 0.832435 -0.241364 -0.498794
vn 0.832435 -0.241364 -0.498794
vn 0.832435 -0.241364 -0.498794
vn 0.832435 -0.241364 -0.498794
vn -0.463218 0.305159 -0.832050
vn -0.463218 0.305159 -0.832050
vn -0.463218 0.305159 -0.832050
vn -0.463218 0.305159 -0.832050
vn -0.661210 0.134542 0.738037
vn -0.661210 0.134542 0.738037
vn -0.661210 0.134542 0.738037
vn -0.661210 0.134542 0.738037
vn 0.759518 0.480340 0.438642
vn 0.759518 0.480340 0.438642
vn 0.759518 0.480340 0.438642
vn 0.759518 0.480340 0.438642
vn 0.832141 0.231125 -0.504106
vn 0.832141 0.231125 -0.504106
vn 0.832141 0.231125 -0.504106
vn 0.832141 0.231125 -0.504106
vn -0.511561 -0.831684 -0.215888
vn -0.511561 -0.831684 -0.215888
vn -0.511561 -0.831684 -0.215888
vn -0.526872 -0.630403 0.570087
vn -0.526872 -0.630403 0.570086
vn -0.526872 -0.630403 0.570087
vn 0.143516 -0.915542 0.375747
vn 0.143516 -0.915542 0.375747
vn 0.143516 -0.915542 0.375747
vn 0.157684 -0.987394 -0.013720
vn 0.157684 -0.987394 -0.013720
vn 0.157684 -0.987394 -0.013720
vn -0.433039 0.466598 -0.771209
vn -0.433039 0.466599 -0.771209
vn -0.433039 0.466598 -0.771209
vn -0.742673 0.449455 0.496414
vn -0.742673 0.449455 0.496414
vn -0.742673 0.449455 0.496414
vn 0.270480 0.960991 0.057766
vn 0.270480 0.960991 0.057766
vn 0.270480 0.960991 0.057766
vn 0.004538 0.703529 -0.710652
vn 0.004538 0.703529 -0.710652
vn 0.004538 0.703529 -0.710652
s off
g pSphere1
usemtl initialShadingGroup
f 1/1/1 2/2/2 6/7/3 5/6/4
f 2/2/5 3/3/6 7/8/7 6/7/8
f 3/3/9 4/4/10 8/9/11 7/8/12
f 4/4/13 1/5/14 5/10/15 8/9/16
f 5/6/17 6/7/18 10/12/19 9/11/20
f 6/7/21 7/8/22 11/13/23 10/12/24
f 7/8/25 8/9/26 12/14/27 11/13/28
f 8/9/29 5/10/30 9/15/31 12/14/32
f 2/2/33 1/1/34 13/16/35
f 3/3/36 2/2/37 13/17/38
f 4/4/39 3/3/40 13/18/41
f 1/5/42 4/4/43 13/19/44
f 9/11/45 10/12/46 14/20/47
f 10/12/48 11/13/49 14/21/50
f 11/13/51 12/14/52 14/22/53
f 12/14/54 9/15/55 14/23/56
