# This file uses centimeters as units for non-parametric coordinates.

mtllib rock 3.mtl
g default
v 4.725312 -0.036070 7.346934
v 5.156140 -0.008595 6.218243
v 4.658978 0.409194 7.144017
v 4.722105 0.336168 6.462480
v 4.123552 0.341971 6.958057
v 4.237338 0.316692 6.295114
v 3.814403 -0.066647 7.030418
v 4.082834 -0.013860 6.099847
v 4.997137 -0.015238 6.770299
v 3.470096 -0.060930 6.778610
v 3.887472 0.327719 6.622055
v 4.809957 0.364708 6.781065
vt 0.138631 0.534530
vt 0.000000 0.134281
vt 0.169266 0.171011
vt 0.213170 0.357416
vt 0.295685 0.472536
vt 0.213630 0.653127
vt 0.315478 0.108904
vt 0.440072 0.163013
vt 0.467367 0.368678
vt 0.297188 0.000000
vt 0.571866 0.010622
vt 0.532331 0.445662
vt 0.768333 0.634899
vt 0.642010 0.030189
vt 0.960465 0.218417
vt 1.000000 0.653457
vt 0.569923 0.186973
vt 0.517832 0.573594
vn 0.838912 0.488466 0.240058
vn 0.830679 0.516079 0.208889
vn 0.766446 0.640622 0.046524
vn 0.766446 0.640622 0.046524
vn -0.037065 0.996591 -0.073711
vn -0.039560 0.996454 -0.074266
vn -0.023614 0.997217 -0.070709
vn -0.023614 0.997217 -0.070709
vn -0.702639 0.711539 -0.003224
vn -0.705623 0.677312 -0.208191
vn -0.623398 0.526803 -0.577801
vn -0.623398 0.526803 -0.577801
vn 0.024862 -0.999186 -0.031762
vn 0.025594 -0.999160 -0.031990
vn 0.020875 -0.999316 -0.030522
vn 0.020875 -0.999316 -0.030522
vn 0.138070 0.579758 -0.803005
vn 0.138070 0.579758 -0.803005
vn 0.138070 0.579758 -0.803005
vn 0.138070 0.579758 -0.803005
vn -0.326900 0.372909 0.868375
vn -0.326900 0.372909 0.868375
vn -0.326900 0.372909 0.868375
vn -0.326900 0.372909 0.868375
vn 0.035686 -0.998746 -0.035129
vn 0.035686 -0.998746 -0.035129
vn -0.545810 0.649410 0.529488
vn -0.545811 0.649410 0.529488
vn -0.052894 0.995609 -0.077227
vn -0.052894 0.995609 -0.077227
vn 0.857152 0.351081 0.376871
vn 0.857152 0.351081 0.376871
s 1
g pCube4
usemtl lambert31SG
f 12/7/1 9/10/2 2/11/3 4/8/4
s 2
f 11/5/5 12/7/6 4/8/7 6/9/8
s 3
f 10/6/9 11/5/10 6/9/11 8/12/12
s 4
f 9/13/13 10/14/14 8/15/15 2/16/16
s off
f 2/11/17 8/12/18 6/9/19 4/8/20
f 7/1/21 1/2/22 3/3/23 5/4/24
s 4
f 7/17/25 10/14/14 9/13/13 1/18/26
s 3
f 5/4/27 11/5/10 10/6/9 7/1/28
s 2
f 3/3/29 12/7/6 11/5/5 5/4/30
s 1
f 1/2/31 9/10/2 12/7/1 3/3/32
