# This file uses centimeters as units for non-parametric coordinates.

mtllib rock 1.mtl
g default
v 3.302977 -0.028156 7.730797
v 3.379099 -0.010676 8.495654
v 3.398478 0.255132 7.827376
v 3.556548 0.208671 8.233141
v 3.756067 0.212362 7.780787
v 3.880020 0.196279 8.190391
v 3.911378 -0.047610 7.651619
v 4.023512 -0.014025 8.257521
v 3.312438 -0.014902 8.136274
v 4.178962 -0.043973 7.696897
v 3.986035 0.203295 7.904777
v 3.415879 0.226829 8.076871
vt 0.138631 0.534530
vt 0.000000 0.134281
vt 0.169266 0.171011
vt 0.213170 0.357416
vt 0.295685 0.472536
vt 0.213630 0.653127
vt 0.315478 0.108904
vt 0.440072 0.163013
vt 0.467367 0.368678
vt 0.297188 0.000000
vt 0.571866 0.010622
vt 0.532331 0.445662
vt 0.768333 0.634899
vt 0.642010 0.030189
vt 0.960465 0.218417
vt 1.000000 0.653457
vt 0.569923 0.186973
vt 0.517832 0.573594
vn -0.857673 0.488466 0.160619
vn -0.836365 0.516079 0.184811
vn -0.706280 0.640622 0.301285
vn -0.706280 0.640622 0.301285
vn 0.066126 0.996591 0.049341
vn 0.068606 0.996453 0.048721
vn 0.052753 0.997217 0.052674
vn 0.052753 0.997217 0.052674
vn 0.629843 0.711539 -0.311464
vn 0.724211 0.677312 -0.129488
vn 0.816029 0.526803 0.237856
vn 0.816029 0.526803 0.237856
vn -0.008025 -0.999186 0.039529
vn -0.008578 -0.999160 0.040060
vn -0.005015 -0.999316 0.036636
vn -0.005015 -0.999316 0.036636
vn 0.235767 0.579758 0.779932
vn 0.235767 0.579758 0.779932
vn 0.235767 0.579758 0.779932
vn 0.235767 0.579758 0.779932
vn -0.096133 0.372909 -0.922874
vn -0.096133 0.372909 -0.922874
vn -0.096133 0.372909 -0.922874
vn -0.096133 0.372909 -0.922874
vn -0.016199 -0.998745 0.047383
vn -0.016199 -0.998745 0.047383
vn 0.251259 0.649410 -0.717729
vn 0.251259 0.649410 -0.717729
vn 0.081855 0.995610 0.045404
vn 0.081855 0.995609 0.045404
vn -0.935194 0.351081 0.046421
vn -0.935194 0.351081 0.046421
s 1
g pCube3
usemtl lambert30SG
f 12/7/1 9/10/2 2/11/3 4/8/4
s 2
f 11/5/5 12/7/6 4/8/7 6/9/8
s 3
f 10/6/9 11/5/10 6/9/11 8/12/12
s 4
f 9/13/13 10/14/14 8/15/15 2/16/16
s off
f 2/11/17 8/12/18 6/9/19 4/8/20
f 7/1/21 1/2/22 3/3/23 5/4/24
s 4
f 7/17/25 10/14/14 9/13/13 1/18/26
s 3
f 5/4/27 11/5/10 10/6/9 7/1/28
s 2
f 3/3/29 12/7/6 11/5/5 5/4/30
s 1
f 1/2/31 9/10/2 12/7/1 3/3/32
